<svg width="108" height="40" viewBox="0 0 108 40" fill="none" xmlns="http://www.w3.org/2000/svg">
<rect width="108" height="40" rx="15" fill="url(#paint0_linear_61_368)"/>
<path d="M28.0829 25V14.0909H32.4508C33.2534 14.0909 33.9228 14.2099 34.459 14.4478C34.9952 14.6857 35.3983 15.016 35.6681 15.4386C35.938 15.8576 36.073 16.3406 36.073 16.8874C36.073 17.3136 35.9877 17.6882 35.8173 18.0114C35.6468 18.331 35.4125 18.5937 35.1142 18.7997C34.8194 19.0021 34.4821 19.146 34.1021 19.2312V19.3377C34.5176 19.3555 34.9064 19.4727 35.2686 19.6893C35.6344 19.9059 35.9309 20.2095 36.1582 20.6001C36.3855 20.9872 36.4991 21.4489 36.4991 21.9851C36.4991 22.5639 36.3553 23.0806 36.0676 23.5352C35.7836 23.9862 35.3627 24.343 34.8052 24.6058C34.2477 24.8686 33.5605 25 32.7438 25H28.0829ZM30.3894 23.1143H32.2697C32.9125 23.1143 33.3812 22.9918 33.676 22.7468C33.9707 22.4982 34.1181 22.168 34.1181 21.756C34.1181 21.4542 34.0453 21.1879 33.8997 20.957C33.7541 20.7262 33.5463 20.5451 33.2765 20.4137C33.0101 20.2823 32.6923 20.2166 32.323 20.2166H30.3894V23.1143ZM30.3894 18.6559H32.0993C32.4153 18.6559 32.6958 18.6009 32.9409 18.4908C33.1895 18.3771 33.3848 18.2173 33.5268 18.0114C33.6724 17.8054 33.7452 17.5586 33.7452 17.271C33.7452 16.8768 33.6049 16.5589 33.3244 16.3175C33.0474 16.076 32.6532 15.9553 32.1419 15.9553H30.3894V18.6559ZM48.0248 19.5455C48.0248 20.7351 47.7993 21.7472 47.3483 22.5817C46.9008 23.4162 46.29 24.0536 45.5159 24.494C44.7453 24.9308 43.8788 25.1491 42.9165 25.1491C41.947 25.1491 41.077 24.929 40.3064 24.4886C39.5358 24.0483 38.9268 23.4109 38.4793 22.5763C38.0319 21.7418 37.8081 20.7315 37.8081 19.5455C37.8081 18.3558 38.0319 17.3438 38.4793 16.5092C38.9268 15.6747 39.5358 15.0391 40.3064 14.6023C41.077 14.1619 41.947 13.9418 42.9165 13.9418C43.8788 13.9418 44.7453 14.1619 45.5159 14.6023C46.29 15.0391 46.9008 15.6747 47.3483 16.5092C47.7993 17.3438 48.0248 18.3558 48.0248 19.5455ZM45.6863 19.5455C45.6863 18.7749 45.5709 18.125 45.3401 17.5959C45.1128 17.0668 44.7915 16.6655 44.376 16.392C43.9605 16.1186 43.474 15.9819 42.9165 15.9819C42.3589 15.9819 41.8724 16.1186 41.4569 16.392C41.0415 16.6655 40.7183 17.0668 40.4875 17.5959C40.2602 18.125 40.1466 18.7749 40.1466 19.5455C40.1466 20.3161 40.2602 20.9659 40.4875 21.495C40.7183 22.0241 41.0415 22.4254 41.4569 22.6989C41.8724 22.9723 42.3589 23.109 42.9165 23.109C43.474 23.109 43.9605 22.9723 44.376 22.6989C44.7915 22.4254 45.1128 22.0241 45.3401 21.495C45.5709 20.9659 45.6863 20.3161 45.6863 19.5455ZM49.7333 14.0909H52.0344V20.9517H52.125L56.8391 14.0909H58.858V25H56.5515V18.1339H56.4716L51.7308 25H49.7333V14.0909ZM55.3583 11.2358H56.9403C56.9368 11.8821 56.6971 12.4023 56.2212 12.7965C55.7489 13.1907 55.1097 13.3878 54.3036 13.3878C53.494 13.3878 52.853 13.1907 52.3807 12.7965C51.9084 12.4023 51.6722 11.8821 51.6722 11.2358H53.2436C53.2401 11.4808 53.3182 11.701 53.478 11.8963C53.6413 12.0916 53.9165 12.1893 54.3036 12.1893C54.68 12.1893 54.9499 12.0934 55.1133 11.9016C55.2766 11.7099 55.3583 11.4879 55.3583 11.2358ZM60.3481 15.9925V14.0909H69.3076V15.9925H65.9678V25H63.6879V15.9925H60.3481ZM70.7831 14.0909H73.0843V20.9517H73.1748L77.8889 14.0909H79.9078V25H77.6013V18.1339H77.5214L72.7806 25H70.7831V14.0909Z" fill="white"/>
<defs>
<linearGradient id="paint0_linear_61_368" x1="56.4076" y1="-10.8475" x2="47.2806" y2="38.7638" gradientUnits="userSpaceOnUse">
<stop stop-color="#FF8340"/>
<stop offset="1" stop-color="#C2330F"/>
</linearGradient>
</defs>
</svg>
