<svg width="455" height="44" viewBox="0 0 455 44" fill="none" xmlns="http://www.w3.org/2000/svg">
<rect x="1.5" y="1.5" width="452" height="41" rx="20.5" fill="black" stroke="url(#paint0_linear_58_347)" stroke-width="3"/>
<path d="M429.893 23.2882C430.381 22.8 430.381 22.0086 429.893 21.5204L421.938 13.5655C421.45 13.0773 420.658 13.0773 420.17 13.5655C419.682 14.0536 419.682 14.8451 420.17 15.3332L427.241 22.4043L420.17 29.4754C419.682 29.9635 419.682 30.755 420.17 31.2431C420.658 31.7313 421.45 31.7313 421.938 31.2431L429.893 23.2882ZM427.657 23.6543H429.009V21.1543H427.657V23.6543Z" fill="url(#paint1_linear_58_347)"/>
<path d="M34.4447 28V17.0909H38.8126C39.6152 17.0909 40.2846 17.2099 40.8208 17.4478C41.357 17.6857 41.7601 18.016 42.03 18.4386C42.2998 18.8576 42.4348 19.3406 42.4348 19.8874C42.4348 20.3136 42.3496 20.6882 42.1791 21.0114C42.0087 21.331 41.7743 21.5937 41.476 21.7997C41.1812 22.0021 40.8439 22.146 40.4639 22.2312V22.3377C40.8794 22.3555 41.2682 22.4727 41.6305 22.6893C41.9962 22.9059 42.2927 23.2095 42.52 23.6001C42.7473 23.9872 42.8609 24.4489 42.8609 24.9851C42.8609 25.5639 42.7171 26.0806 42.4295 26.5352C42.1454 26.9862 41.7246 27.343 41.167 27.6058C40.6095 27.8686 39.9224 28 39.1056 28H34.4447ZM36.7512 26.1143H38.6315C39.2743 26.1143 39.743 25.9918 40.0378 25.7468C40.3325 25.4982 40.4799 25.168 40.4799 24.756C40.4799 24.4542 40.4071 24.1879 40.2615 23.957C40.1159 23.7262 39.9082 23.5451 39.6383 23.4137C39.3719 23.2823 39.0541 23.2166 38.6848 23.2166H36.7512V26.1143ZM36.7512 21.6559H38.4611C38.7771 21.6559 39.0577 21.6009 39.3027 21.4908C39.5513 21.3771 39.7466 21.2173 39.8886 21.0114C40.0342 20.8054 40.107 20.5586 40.107 20.271C40.107 19.8768 39.9668 19.5589 39.6862 19.3175C39.4092 19.076 39.015 18.9553 38.5037 18.9553H36.7512V21.6559ZM53.9871 20.9102H51.654C51.6114 20.6083 51.5244 20.3402 51.393 20.1058C51.2616 19.8679 51.0929 19.6655 50.8869 19.4986C50.681 19.3317 50.443 19.2038 50.1732 19.1151C49.9068 19.0263 49.6174 18.9819 49.3049 18.9819C48.7403 18.9819 48.2484 19.1222 47.8294 19.4027C47.4104 19.6797 47.0854 20.0845 46.8546 20.6172C46.6238 21.1463 46.5084 21.7891 46.5084 22.5455C46.5084 23.3232 46.6238 23.9766 46.8546 24.5057C47.089 25.0348 47.4157 25.4343 47.8347 25.7042C48.2538 25.9741 48.7385 26.109 49.2889 26.109C49.5979 26.109 49.8837 26.0682 50.1465 25.9865C50.4129 25.9048 50.649 25.7859 50.855 25.6296C51.0609 25.4698 51.2314 25.2763 51.3663 25.049C51.5048 24.8217 51.6007 24.5625 51.654 24.2713L53.9871 24.282C53.9267 24.7827 53.7758 25.2656 53.5343 25.7308C53.2964 26.1925 52.975 26.6062 52.5702 26.9719C52.1689 27.3342 51.6895 27.6218 51.132 27.8349C50.578 28.0444 49.9512 28.1491 49.2516 28.1491C48.2786 28.1491 47.4086 27.929 46.6416 27.4886C45.8781 27.0483 45.2744 26.4109 44.8305 25.5763C44.3901 24.7418 44.17 23.7315 44.17 22.5455C44.17 21.3558 44.3937 20.3438 44.8411 19.5092C45.2886 18.6747 45.8958 18.0391 46.6629 17.6023C47.4299 17.1619 48.2928 16.9418 49.2516 16.9418C49.8837 16.9418 50.4697 17.0305 51.0095 17.2081C51.5528 17.3857 52.034 17.6449 52.453 17.9858C52.872 18.3232 53.2129 18.7369 53.4757 19.2269C53.7421 19.717 53.9125 20.2781 53.9871 20.9102ZM55.641 28V17.0909H62.9919V18.9925H57.9475V21.592H62.6137V23.4936H57.9475V26.0984H63.0132V28H55.641ZM68.2973 17.0909H71.1417L74.146 24.4205H74.2738L77.2781 17.0909H80.1226V28H77.8853V20.8995H77.7948L74.9716 27.9467H73.4482L70.625 20.8729H70.5345V28H68.2973V17.0909ZM82.0229 28V17.0909H89.3737V18.9925H84.3293V21.592H88.9955V23.4936H84.3293V26.0984H89.395V28H82.0229ZM91.2074 28V17.0909H95.5114C96.3388 17.0909 97.0437 17.2489 97.6261 17.565C98.2085 17.8775 98.6524 18.3125 98.9578 18.87C99.2667 19.424 99.4212 20.0632 99.4212 20.7876C99.4212 21.5121 99.265 22.1513 98.9525 22.7053C98.64 23.2592 98.1872 23.6907 97.5941 23.9996C97.0047 24.3086 96.2909 24.4631 95.4528 24.4631H92.7096V22.6147H95.0799C95.5238 22.6147 95.8896 22.5384 96.1772 22.3857C96.4684 22.2294 96.6851 22.0146 96.8271 21.7411C96.9727 21.4641 97.0455 21.1463 97.0455 20.7876C97.0455 20.4254 96.9727 20.1094 96.8271 19.8395C96.6851 19.5661 96.4684 19.3548 96.1772 19.2056C95.8861 19.0529 95.5167 18.9766 95.0693 18.9766H93.5139V28H91.2074ZM110.944 22.5455C110.944 23.7351 110.719 24.7472 110.268 25.5817C109.82 26.4162 109.209 27.0536 108.435 27.494C107.665 27.9308 106.798 28.1491 105.836 28.1491C104.866 28.1491 103.996 27.929 103.226 27.4886C102.455 27.0483 101.846 26.4109 101.399 25.5763C100.951 24.7418 100.728 23.7315 100.728 22.5455C100.728 21.3558 100.951 20.3438 101.399 19.5092C101.846 18.6747 102.455 18.0391 103.226 17.6023C103.996 17.1619 104.866 16.9418 105.836 16.9418C106.798 16.9418 107.665 17.1619 108.435 17.6023C109.209 18.0391 109.82 18.6747 110.268 19.5092C110.719 20.3438 110.944 21.3558 110.944 22.5455ZM108.606 22.5455C108.606 21.7749 108.49 21.125 108.26 20.5959C108.032 20.0668 107.711 19.6655 107.295 19.392C106.88 19.1186 106.393 18.9819 105.836 18.9819C105.278 18.9819 104.792 19.1186 104.376 19.392C103.961 19.6655 103.638 20.0668 103.407 20.5959C103.18 21.125 103.066 21.7749 103.066 22.5455C103.066 23.3161 103.18 23.9659 103.407 24.495C103.638 25.0241 103.961 25.4254 104.376 25.6989C104.792 25.9723 105.278 26.109 105.836 26.109C106.393 26.109 106.88 25.9723 107.295 25.6989C107.711 25.4254 108.032 25.0241 108.26 24.495C108.49 23.9659 108.606 23.3161 108.606 22.5455ZM121.927 17.0909V28H119.647V18.9659H115.236V28H112.956V17.0909H121.927ZM124.122 28V17.0909H128.426C129.254 17.0909 129.959 17.2489 130.541 17.565C131.124 17.8775 131.567 18.3125 131.873 18.87C132.182 19.424 132.336 20.0632 132.336 20.7876C132.336 21.5121 132.18 22.1513 131.867 22.7053C131.555 23.2592 131.102 23.6907 130.509 23.9996C129.92 24.3086 129.206 24.4631 128.368 24.4631H125.625V22.6147H127.995C128.439 22.6147 128.805 22.5384 129.092 22.3857C129.383 22.2294 129.6 22.0146 129.742 21.7411C129.888 21.4641 129.961 21.1463 129.961 20.7876C129.961 20.4254 129.888 20.1094 129.742 19.8395C129.6 19.5661 129.383 19.3548 129.092 19.2056C128.801 19.0529 128.432 18.9766 127.984 18.9766H126.429V28H124.122ZM133.834 17.0909H136.136V23.9517H136.226L140.94 17.0909H142.959V28H140.653V21.1339H140.573L135.832 28H133.834V17.0909ZM153.238 28H150.937V18.9766H149.382C148.938 18.9766 148.568 19.0423 148.274 19.1737C147.983 19.3015 147.764 19.4897 147.619 19.7383C147.473 19.9869 147.4 20.2923 147.4 20.6545C147.4 21.0131 147.473 21.3132 147.619 21.5547C147.764 21.7962 147.983 21.9773 148.274 22.098C148.565 22.2187 148.931 22.2791 149.371 22.2791H151.875V24.1328H148.998C148.164 24.1328 147.45 23.9943 146.857 23.7173C146.264 23.4403 145.811 23.0426 145.499 22.5241C145.186 22.0021 145.03 21.3789 145.03 20.6545C145.03 19.9336 145.182 19.3068 145.488 18.7741C145.797 18.2379 146.242 17.8242 146.825 17.533C147.411 17.2383 148.116 17.0909 148.94 17.0909H153.238V28ZM147.352 23.0355H149.84L147.187 28H144.641L147.352 23.0355ZM154.718 18.9925V17.0909H163.677V18.9925H160.337V28H158.058V18.9925H154.718ZM165.153 17.0909H167.454V23.9517H167.544L172.259 17.0909H174.277V28H171.971V21.1339H171.891L167.15 28H165.153V17.0909ZM184.557 28H182.255V18.9766H180.7C180.256 18.9766 179.887 19.0423 179.592 19.1737C179.301 19.3015 179.083 19.4897 178.937 19.7383C178.791 19.9869 178.719 20.2923 178.719 20.6545C178.719 21.0131 178.791 21.3132 178.937 21.5547C179.083 21.7962 179.301 21.9773 179.592 22.098C179.883 22.2187 180.249 22.2791 180.689 22.2791H183.193V24.1328H180.317C179.482 24.1328 178.768 23.9943 178.175 23.7173C177.582 23.4403 177.129 23.0426 176.817 22.5241C176.504 22.0021 176.348 21.3789 176.348 20.6545C176.348 19.9336 176.501 19.3068 176.806 18.7741C177.115 18.2379 177.561 17.8242 178.143 17.533C178.729 17.2383 179.434 17.0909 180.258 17.0909H184.557V28ZM178.671 23.0355H181.158L178.505 28H175.959L178.671 23.0355Z" fill="white"/>
<defs>
<linearGradient id="paint0_linear_58_347" x1="237.51" y1="-7.30508" x2="235.465" y2="41.3348" gradientUnits="userSpaceOnUse">
<stop stop-color="#FF8340"/>
<stop offset="1" stop-color="#C2330F"/>
</linearGradient>
<linearGradient id="paint1_linear_58_347" x1="428.019" y1="22.016" x2="427.447" y2="22.5326" gradientUnits="userSpaceOnUse">
<stop stop-color="#FFB640"/>
<stop offset="1" stop-color="#DC4E2B"/>
</linearGradient>
</defs>
</svg>
