<svg width="206" height="40" viewBox="0 0 206 40" fill="none" xmlns="http://www.w3.org/2000/svg">
<rect x="1" y="1" width="204" height="38" rx="14" stroke="url(#paint0_linear_2029_2)" stroke-width="2"/>
<path d="M43.0027 17.9102H40.6696C40.627 17.6083 40.54 17.3402 40.4086 17.1058C40.2772 16.8679 40.1085 16.6655 39.9026 16.4986C39.6966 16.3317 39.4587 16.2038 39.1888 16.1151C38.9225 16.0263 38.633 15.9819 38.3205 15.9819C37.7559 15.9819 37.2641 16.1222 36.845 16.4027C36.426 16.6797 36.1011 17.0845 35.8703 17.6172C35.6394 18.1463 35.524 18.7891 35.524 19.5455C35.524 20.3232 35.6394 20.9766 35.8703 21.5057C36.1046 22.0348 36.4313 22.4343 36.8504 22.7042C37.2694 22.9741 37.7541 23.109 38.3046 23.109C38.6135 23.109 38.8994 23.0682 39.1622 22.9865C39.4285 22.9048 39.6646 22.7859 39.8706 22.6296C40.0766 22.4698 40.247 22.2763 40.382 22.049C40.5205 21.8217 40.6163 21.5625 40.6696 21.2713L43.0027 21.282C42.9423 21.7827 42.7914 22.2656 42.5499 22.7308C42.312 23.1925 41.9906 23.6062 41.5858 23.9719C41.1845 24.3342 40.7051 24.6218 40.1476 24.8349C39.5936 25.0444 38.9668 25.1491 38.2673 25.1491C37.2943 25.1491 36.4242 24.929 35.6572 24.4886C34.8937 24.0483 34.29 23.4109 33.8461 22.5763C33.4058 21.7418 33.1856 20.7315 33.1856 19.5455C33.1856 18.3558 33.4093 17.3438 33.8568 16.5092C34.3042 15.6747 34.9114 15.0391 35.6785 14.6023C36.4455 14.1619 37.3085 13.9418 38.2673 13.9418C38.8994 13.9418 39.4853 14.0305 40.0251 14.2081C40.5684 14.3857 41.0496 14.6449 41.4686 14.9858C41.8877 15.3232 42.2286 15.7369 42.4913 16.2269C42.7577 16.717 42.9281 17.2781 43.0027 17.9102ZM44.1879 18.6026V16.8182H51.6027V18.6026H48.966V25H46.8033V18.6026H44.1879ZM55.0184 25.1545C54.4964 25.1545 54.0312 25.0639 53.6228 24.8828C53.2144 24.6982 52.8913 24.4265 52.6534 24.0678C52.419 23.7056 52.3018 23.2546 52.3018 22.7148C52.3018 22.2603 52.3853 21.8786 52.5522 21.5696C52.7191 21.2607 52.9463 21.0121 53.234 20.8239C53.5216 20.6357 53.8483 20.4936 54.2141 20.3977C54.5834 20.3018 54.9705 20.2344 55.3753 20.1953C55.8512 20.1456 56.2347 20.0994 56.5259 20.0568C56.8171 20.0107 57.0284 19.9432 57.1598 19.8544C57.2911 19.7656 57.3568 19.6342 57.3568 19.4602V19.4283C57.3568 19.0909 57.2503 18.8299 57.0372 18.6452C56.8277 18.4606 56.5294 18.3683 56.1424 18.3683C55.734 18.3683 55.409 18.4588 55.1676 18.6399C54.9261 18.8175 54.7663 19.0412 54.6882 19.3111L52.5894 19.1406C52.696 18.6435 52.9055 18.2138 53.218 17.8516C53.5305 17.4858 53.9335 17.2053 54.4272 17.0099C54.9243 16.8111 55.4996 16.7116 56.153 16.7116C56.6076 16.7116 57.0426 16.7649 57.4581 16.8714C57.8771 16.978 58.2482 17.1431 58.5713 17.3668C58.898 17.5906 59.1555 17.8782 59.3437 18.2298C59.5319 18.5778 59.626 18.995 59.626 19.4815V25H57.474V23.8654H57.4101C57.2787 24.1211 57.1029 24.3466 56.8828 24.5419C56.6626 24.7337 56.398 24.8846 56.0891 24.9947C55.7801 25.1012 55.4233 25.1545 55.0184 25.1545ZM55.6683 23.5884C56.0021 23.5884 56.2968 23.5227 56.5525 23.3913C56.8082 23.2564 57.0088 23.0753 57.1544 22.848C57.3 22.6207 57.3728 22.3633 57.3728 22.0756V21.2074C57.3018 21.2536 57.2041 21.2962 57.0799 21.3352C56.9591 21.3707 56.8224 21.4045 56.6697 21.4364C56.517 21.4648 56.3643 21.4915 56.2116 21.5163C56.0589 21.5376 55.9204 21.5572 55.7961 21.5749C55.5298 21.614 55.2972 21.6761 55.0983 21.7614C54.8995 21.8466 54.745 21.962 54.6349 22.1076C54.5248 22.2496 54.4698 22.4272 54.4698 22.6403C54.4698 22.9492 54.5816 23.1854 54.8054 23.3487C55.0326 23.5085 55.3203 23.5884 55.6683 23.5884ZM60.5649 18.6026V16.8182H67.9796V18.6026H65.3429V25H63.1803V18.6026H60.5649ZM70.7775 19.3324H73.2224C74.3055 19.3324 75.1507 19.5916 75.7579 20.1101C76.3652 20.625 76.6688 21.3139 76.6688 22.1768C76.6688 22.7379 76.5321 23.2315 76.2587 23.6577C75.9852 24.0803 75.591 24.4105 75.0761 24.6484C74.5612 24.8828 73.9433 25 73.2224 25H69.3552V16.8182H71.5232V23.2156H73.2224C73.6024 23.2156 73.9149 23.1197 74.1599 22.9279C74.405 22.7362 74.5293 22.4911 74.5328 22.1928C74.5293 21.8768 74.405 21.6193 74.1599 21.4205C73.9149 21.218 73.6024 21.1168 73.2224 21.1168H70.7775V19.3324ZM81.6453 25V16.8182H85.1343C86.1428 16.8182 86.94 17.0099 87.526 17.3935C88.1119 17.777 88.4049 18.3221 88.4049 19.0288C88.4049 19.4727 88.2397 19.842 87.9095 20.1367C87.5792 20.4315 87.1211 20.6303 86.5352 20.7333C87.0253 20.7688 87.4425 20.8807 87.787 21.0689C88.135 21.2536 88.3995 21.4933 88.5807 21.788C88.7653 22.0827 88.8576 22.4094 88.8576 22.7681C88.8576 23.2333 88.7334 23.6328 88.4848 23.9666C88.2397 24.3004 87.8793 24.5561 87.4035 24.7337C86.9312 24.9112 86.3541 25 85.6723 25H81.6453ZM83.76 23.3008H85.6723C85.9883 23.3008 86.2351 23.2262 86.4127 23.0771C86.5938 22.9244 86.6843 22.7166 86.6843 22.4538C86.6843 22.1626 86.5938 21.9336 86.4127 21.7667C86.2351 21.5998 85.9883 21.5163 85.6723 21.5163H83.76V23.3008ZM83.76 20.1847H85.1822C85.4095 20.1847 85.603 20.1527 85.7628 20.0888C85.9262 20.0213 86.0505 19.9254 86.1357 19.8011C86.2245 19.6768 86.2689 19.5295 86.2689 19.359C86.2689 19.1069 86.1677 18.9098 85.9652 18.7678C85.7628 18.6257 85.4858 18.5547 85.1343 18.5547H83.76V20.1847ZM93.9846 25.1598C93.1572 25.1598 92.4416 24.984 91.8379 24.6325C91.2378 24.2773 90.7744 23.7837 90.4477 23.1516C90.121 22.516 89.9576 21.7791 89.9576 20.9411C89.9576 20.0959 90.121 19.3572 90.4477 18.7251C90.7744 18.0895 91.2378 17.5959 91.8379 17.2443C92.4416 16.8892 93.1572 16.7116 93.9846 16.7116C94.812 16.7116 95.5258 16.8892 96.1259 17.2443C96.7296 17.5959 97.1948 18.0895 97.5215 18.7251C97.8482 19.3572 98.0116 20.0959 98.0116 20.9411C98.0116 21.7791 97.8482 22.516 97.5215 23.1516C97.1948 23.7837 96.7296 24.2773 96.1259 24.6325C95.5258 24.984 94.812 25.1598 93.9846 25.1598ZM93.9953 23.402C94.3717 23.402 94.6859 23.2955 94.9381 23.0824C95.1902 22.8658 95.3802 22.571 95.508 22.1982C95.6394 21.8253 95.7051 21.4009 95.7051 20.9251C95.7051 20.4492 95.6394 20.0249 95.508 19.652C95.3802 19.2791 95.1902 18.9844 94.9381 18.7678C94.6859 18.5511 94.3717 18.4428 93.9953 18.4428C93.6153 18.4428 93.2957 18.5511 93.0364 18.7678C92.7808 18.9844 92.5872 19.2791 92.4558 19.652C92.328 20.0249 92.2641 20.4492 92.2641 20.9251C92.2641 21.4009 92.328 21.8253 92.4558 22.1982C92.5872 22.571 92.7808 22.8658 93.0364 23.0824C93.2957 23.2955 93.6153 23.402 93.9953 23.402ZM99.0077 25L98.997 23.1996H99.2687C99.4604 23.1996 99.6256 23.1534 99.7641 23.0611C99.9061 22.9652 100.023 22.8107 100.116 22.5977C100.208 22.3846 100.281 22.1023 100.334 21.7507C100.387 21.3956 100.423 20.9588 100.441 20.4403L100.574 16.8182H106.795V25H104.633V18.6026H102.614L102.486 21.1009C102.454 21.7862 102.371 22.3757 102.236 22.8693C102.104 23.3629 101.921 23.7678 101.687 24.0838C101.453 24.3963 101.17 24.6271 100.84 24.7763C100.51 24.9254 100.126 25 99.6895 25H99.0077ZM112.251 25.1598C111.424 25.1598 110.708 24.984 110.105 24.6325C109.504 24.2773 109.041 23.7837 108.714 23.1516C108.388 22.516 108.224 21.7791 108.224 20.9411C108.224 20.0959 108.388 19.3572 108.714 18.7251C109.041 18.0895 109.504 17.5959 110.105 17.2443C110.708 16.8892 111.424 16.7116 112.251 16.7116C113.079 16.7116 113.792 16.8892 114.393 17.2443C114.996 17.5959 115.461 18.0895 115.788 18.7251C116.115 19.3572 116.278 20.0959 116.278 20.9411C116.278 21.7791 116.115 22.516 115.788 23.1516C115.461 23.7837 114.996 24.2773 114.393 24.6325C113.792 24.984 113.079 25.1598 112.251 25.1598ZM112.262 23.402C112.638 23.402 112.953 23.2955 113.205 23.0824C113.457 22.8658 113.647 22.571 113.775 22.1982C113.906 21.8253 113.972 21.4009 113.972 20.9251C113.972 20.4492 113.906 20.0249 113.775 19.652C113.647 19.2791 113.457 18.9844 113.205 18.7678C112.953 18.5511 112.638 18.4428 112.262 18.4428C111.882 18.4428 111.562 18.5511 111.303 18.7678C111.047 18.9844 110.854 19.2791 110.722 19.652C110.595 20.0249 110.531 20.4492 110.531 20.9251C110.531 21.4009 110.595 21.8253 110.722 22.1982C110.854 22.571 111.047 22.8658 111.303 23.0824C111.562 23.2955 111.882 23.402 112.262 23.402ZM123.448 20.0036V21.788H119.176V20.0036H123.448ZM119.922 16.8182V25H117.754V16.8182H119.922ZM124.87 16.8182V25H122.718V16.8182H124.87ZM125.809 18.6026V16.8182H133.224V18.6026H130.587V25H128.424V18.6026H125.809ZM138.035 25.1598C137.193 25.1598 136.469 24.9893 135.862 24.6484C135.258 24.304 134.793 23.8175 134.466 23.1889C134.14 22.5568 133.976 21.8093 133.976 20.9464C133.976 20.1048 134.14 19.3661 134.466 18.7305C134.793 18.0948 135.253 17.5994 135.846 17.2443C136.442 16.8892 137.142 16.7116 137.945 16.7116C138.484 16.7116 138.987 16.7987 139.452 16.9727C139.921 17.1431 140.329 17.4006 140.677 17.745C141.029 18.0895 141.302 18.5227 141.497 19.0447C141.693 19.5632 141.79 20.1705 141.79 20.8665V21.4897H134.882V20.0835H139.654C139.654 19.7567 139.583 19.4673 139.441 19.2152C139.299 18.9631 139.102 18.766 138.85 18.6239C138.602 18.4783 138.312 18.4055 137.982 18.4055C137.637 18.4055 137.332 18.4854 137.066 18.6452C136.803 18.8015 136.597 19.0128 136.448 19.2791C136.299 19.5419 136.222 19.8349 136.219 20.158V21.495C136.219 21.8999 136.293 22.2496 136.442 22.5444C136.595 22.8391 136.81 23.0664 137.087 23.2262C137.364 23.386 137.692 23.4659 138.072 23.4659C138.325 23.4659 138.555 23.4304 138.765 23.3594C138.974 23.2884 139.154 23.1818 139.303 23.0398C139.452 22.8977 139.566 22.7237 139.644 22.5178L141.742 22.6562C141.636 23.1605 141.418 23.6009 141.087 23.9773C140.761 24.3501 140.338 24.6413 139.82 24.8509C139.305 25.0568 138.71 25.1598 138.035 25.1598ZM143.271 28.0682V16.8182H145.508V18.1925H145.61C145.709 17.9723 145.853 17.7486 146.041 17.5213C146.233 17.2905 146.481 17.0987 146.787 16.946C147.096 16.7898 147.479 16.7116 147.937 16.7116C148.534 16.7116 149.084 16.8679 149.589 17.1804C150.093 17.4893 150.496 17.9563 150.798 18.5813C151.1 19.2028 151.251 19.9822 151.251 20.9197C151.251 21.8324 151.103 22.603 150.809 23.2315C150.517 23.8565 150.12 24.3306 149.615 24.6538C149.115 24.9734 148.554 25.1332 147.932 25.1332C147.492 25.1332 147.117 25.0604 146.808 24.9148C146.503 24.7692 146.252 24.5863 146.057 24.3661C145.862 24.1424 145.713 23.9169 145.61 23.6896H145.54V28.0682H143.271ZM145.492 20.9091C145.492 21.3956 145.56 21.82 145.695 22.1822C145.83 22.5444 146.025 22.8267 146.281 23.0291C146.537 23.228 146.847 23.3274 147.213 23.3274C147.582 23.3274 147.895 23.2262 148.151 23.0238C148.406 22.8178 148.6 22.5337 148.731 22.1715C148.866 21.8058 148.934 21.3849 148.934 20.9091C148.934 20.4368 148.868 20.0213 148.736 19.6626C148.605 19.304 148.412 19.0234 148.156 18.821C147.9 18.6186 147.586 18.5174 147.213 18.5174C146.844 18.5174 146.531 18.6151 146.276 18.8104C146.023 19.0057 145.83 19.2827 145.695 19.6413C145.56 20 145.492 20.4226 145.492 20.9091ZM156.46 25.1598C155.633 25.1598 154.917 24.984 154.314 24.6325C153.713 24.2773 153.25 23.7837 152.923 23.1516C152.597 22.516 152.433 21.7791 152.433 20.9411C152.433 20.0959 152.597 19.3572 152.923 18.7251C153.25 18.0895 153.713 17.5959 154.314 17.2443C154.917 16.8892 155.633 16.7116 156.46 16.7116C157.288 16.7116 158.001 16.8892 158.602 17.2443C159.205 17.5959 159.67 18.0895 159.997 18.7251C160.324 19.3572 160.487 20.0959 160.487 20.9411C160.487 21.7791 160.324 22.516 159.997 23.1516C159.67 23.7837 159.205 24.2773 158.602 24.6325C158.001 24.984 157.288 25.1598 156.46 25.1598ZM156.471 23.402C156.847 23.402 157.162 23.2955 157.414 23.0824C157.666 22.8658 157.856 22.571 157.984 22.1982C158.115 21.8253 158.181 21.4009 158.181 20.9251C158.181 20.4492 158.115 20.0249 157.984 19.652C157.856 19.2791 157.666 18.9844 157.414 18.7678C157.162 18.5511 156.847 18.4428 156.471 18.4428C156.091 18.4428 155.771 18.5511 155.512 18.7678C155.256 18.9844 155.063 19.2791 154.931 19.652C154.804 20.0249 154.74 20.4492 154.74 20.9251C154.74 21.4009 154.804 21.8253 154.931 22.1982C155.063 22.571 155.256 22.8658 155.512 23.0824C155.771 23.2955 156.091 23.402 156.471 23.402ZM166.799 22.4911L169.015 16.8182H170.741L167.55 25H166.043L162.927 16.8182H164.647L166.799 22.4911ZM164.131 16.8182V25H161.963V16.8182H164.131ZM169.58 25V16.8182H171.721V25H169.58Z" fill="url(#paint1_linear_2029_2)"/>
<defs>
<linearGradient id="paint0_linear_2029_2" x1="55.2199" y1="-15.5319" x2="42.8622" y2="26.9221" gradientUnits="userSpaceOnUse">
<stop stop-color="#FFB640"/>
<stop offset="1" stop-color="#DC4E2B"/>
</linearGradient>
<linearGradient id="paint1_linear_2029_2" x1="65.6212" y1="3.24699" x2="62.4241" y2="22.745" gradientUnits="userSpaceOnUse">
<stop stop-color="#FFB640"/>
<stop offset="1" stop-color="#DC4E2B"/>
</linearGradient>
</defs>
</svg>
