<svg width="155" height="39" viewBox="0 0 155 39" fill="none" xmlns="http://www.w3.org/2000/svg">
<path d="M7.994 35.794C7.04333 35.7327 6.09267 35.38 5.142 34.736C4.19133 34.1227 3.31733 33.54 2.52 32.988C1.99867 32.4667 1.6 31.9147 1.324 31.332C1.048 30.7187 0.818 29.9213 0.634 28.94C0.511333 28.3573 0.511333 27.5907 0.634 26.64C0.756667 25.6893 0.956 24.7387 1.232 23.788C1.508 22.8067 1.76867 22.04 2.014 21.488C2.382 20.6293 2.842 19.7093 3.394 18.728C3.97667 17.716 4.544 16.7653 5.096 15.876C5.67867 14.956 6.13867 14.22 6.476 13.668C6.69067 13.4533 6.78267 13.346 6.752 13.346C6.752 13.3153 6.752 13.3 6.752 13.3C6.752 13.1467 6.90533 12.7633 7.212 12.15C7.54933 11.506 7.84067 10.9387 8.086 10.448C8.546 9.95733 8.80667 9.55867 8.868 9.252C8.92933 8.94533 8.88333 8.7 8.73 8.516C8.66867 8.39333 8.79133 8.13267 9.098 7.734C9.43533 7.33533 9.89533 6.89066 10.478 6.4C11.0607 5.87866 11.7047 5.41866 12.41 5.02C13.146 4.43733 13.8513 4.13066 14.526 4.1C15.2313 4.03867 15.6453 4.17667 15.768 4.514C15.768 4.606 15.9367 4.63667 16.274 4.606C16.642 4.54466 17.056 4.468 17.516 4.376C18.0067 4.25333 18.436 4.16133 18.804 4.1C18.9573 3.916 19.31 3.778 19.862 3.686C20.4447 3.56333 21.1193 3.456 21.886 3.364C22.2847 3.39467 22.7293 3.41 23.22 3.41C23.7107 3.37933 24.14 3.34867 24.508 3.318C24.9067 3.28733 25.106 3.272 25.106 3.272C25.3207 3.21067 25.6273 3.34867 26.026 3.686C26.4553 3.99266 26.7927 4.422 27.038 4.974C27.2527 5.526 27.0687 6.00133 26.486 6.4C25.9033 6.79867 24.9833 7.07467 23.726 7.228C22.806 7.35067 22.0853 7.458 21.564 7.55C21.0733 7.61133 20.5367 7.70333 19.954 7.826C19.402 7.918 18.5893 8.08666 17.516 8.332C16.7493 8.48533 16.1053 8.608 15.584 8.7C15.0627 8.792 14.6027 8.976 14.204 9.252C13.836 9.528 13.422 10.0187 12.962 10.724C12.7473 10.8773 12.4713 11.276 12.134 11.92C11.7967 12.564 11.4593 13.208 11.122 13.852C10.2633 15.048 9.61933 15.9373 9.19 16.52C8.79133 17.072 8.65333 17.4247 8.776 17.578C8.776 17.578 8.99067 17.624 9.42 17.716C9.84933 17.808 10.1253 17.854 10.248 17.854C10.5547 17.7007 10.9227 17.5933 11.352 17.532C11.812 17.4707 12.18 17.4093 12.456 17.348C14.3573 16.8573 15.7527 16.5047 16.642 16.29C17.562 16.0447 18.206 15.876 18.574 15.784C18.9727 15.692 19.3253 15.6307 19.632 15.6C20.0613 15.2627 20.4907 15.2933 20.92 15.692C21.38 16.06 21.702 16.5047 21.886 17.026C22.1007 17.6393 22.1007 18.1147 21.886 18.452C21.6713 18.7893 21.196 19.0653 20.46 19.28C19.7547 19.4947 18.7427 19.7553 17.424 20.062C16.1053 20.338 14.4493 20.752 12.456 21.304C10.7693 21.7947 9.40467 22.086 8.362 22.178C7.31933 22.27 6.82867 22.0093 6.89 21.396C6.67533 21.2733 6.43 21.396 6.154 21.764C5.90867 22.1013 5.67867 22.5767 5.464 23.19C5.24933 23.8033 5.05 24.4627 4.866 25.168C4.71267 25.8733 4.62067 26.5327 4.59 27.146C4.55933 27.7593 4.60533 28.2347 4.728 28.572C4.97333 29.2773 5.35667 29.8907 5.878 30.412C6.43 30.9027 7.22733 31.3013 8.27 31.608C8.88333 31.6387 9.48133 31.6847 10.064 31.746C10.6467 31.8073 11.306 31.6847 12.042 31.378C13.8513 31.0713 15.1087 30.7493 15.814 30.412C16.5193 30.0747 16.9487 29.8447 17.102 29.722C17.3473 29.5993 17.5007 29.4767 17.562 29.354C17.654 29.2313 17.7767 29.17 17.93 29.17C17.838 29.3233 17.8687 29.3233 18.022 29.17C18.1753 29.0167 18.4207 28.802 18.758 28.526C19.402 27.974 20.046 27.6367 20.69 27.514C21.334 27.3913 21.8707 27.3913 22.3 27.514C22.7293 27.606 22.9593 27.7287 22.99 27.882C23.174 28.1887 23.082 28.6793 22.714 29.354C22.346 29.998 21.7787 30.688 21.012 31.424C20.276 32.16 19.402 32.8193 18.39 33.402C16.7647 34.2607 15.0013 34.8587 13.1 35.196C11.1987 35.564 9.49667 35.7633 7.994 35.794ZM29.357 31.562C29.1424 31.378 28.851 30.826 28.483 29.906C28.1457 28.986 27.8084 27.9127 27.471 26.686C27.1644 25.4593 26.919 24.3247 26.735 23.282C26.6124 22.6687 26.4744 22.1473 26.321 21.718C26.1984 21.2887 26.091 20.936 25.999 20.66C25.8457 20.108 25.8917 19.5253 26.137 18.912C26.413 18.2987 26.735 17.8847 27.103 17.67C27.2564 17.578 27.5324 17.5167 27.931 17.486C28.3604 17.4247 28.6364 17.4093 28.759 17.44C29.127 17.5627 29.4644 18.13 29.771 19.142C30.0777 20.1233 30.3537 21.4267 30.599 23.052C30.7217 24.0027 30.8137 24.708 30.875 25.168C30.967 25.5973 31.013 25.8733 31.013 25.996C31.1357 26.2413 31.2124 26.548 31.243 26.916C31.3044 27.2533 31.4577 27.2993 31.703 27.054C31.8257 26.9313 32.0097 26.7167 32.255 26.41C32.531 26.1033 32.853 25.7047 33.221 25.214C33.865 24.3553 34.371 23.65 34.739 23.098C35.1377 22.5153 35.5824 21.9173 36.073 21.304C36.2877 20.9973 36.579 20.66 36.947 20.292C37.315 19.924 37.683 19.5867 38.051 19.28C38.419 18.9427 38.7257 18.7433 38.971 18.682C39.707 18.5593 40.1517 18.8353 40.305 19.51C40.489 20.154 40.2744 20.9053 39.661 21.764C39.4157 22.132 39.2164 22.4847 39.063 22.822C38.9404 23.1287 38.8177 23.3433 38.695 23.466C38.4497 23.9567 38.0664 24.5853 37.545 25.352C37.0237 26.088 36.5177 26.778 36.027 27.422C35.5364 28.0353 35.199 28.434 35.015 28.618C34.8924 28.7407 34.6164 28.9707 34.187 29.308C33.7884 29.6453 33.405 30.0747 33.037 30.596C32.301 31.3013 31.5957 31.7307 30.921 31.884C30.2464 32.0373 29.725 31.93 29.357 31.562ZM49.8296 33.08C48.9096 33.6013 47.9282 33.908 46.8856 34C45.8736 34.0613 44.9229 33.9233 44.0336 33.586C43.1442 33.218 42.4236 32.6813 41.8716 31.976C41.5649 31.5773 41.2736 30.9487 40.9976 30.09C40.7216 29.2007 40.6756 28.0047 40.8596 26.502C41.0436 25.0913 41.4729 23.6653 42.1476 22.224C42.8529 20.7827 43.7116 19.51 44.7236 18.406C45.7356 17.302 46.8396 16.5507 48.0356 16.152C48.4649 15.9987 48.8942 15.8913 49.3236 15.83C49.7836 15.738 50.3816 15.7227 51.1176 15.784C51.8229 15.876 52.4516 16.06 53.0036 16.336C53.5556 16.5813 53.9542 16.8573 54.1996 17.164C54.6902 17.6547 55.0122 18.13 55.1656 18.59C55.3189 19.05 55.3802 19.4947 55.3496 19.924C55.1962 20.9053 54.7516 21.9633 54.0156 23.098C53.3102 24.2327 52.3136 25.076 51.0256 25.628C50.5042 25.8427 49.8909 25.9807 49.1856 26.042C48.4802 26.1033 47.5142 26.0113 46.2876 25.766C45.5516 25.6127 45.0609 25.6893 44.8156 25.996C44.6009 26.3027 44.5089 26.9007 44.5396 27.79C44.6009 28.342 44.7236 28.8327 44.9076 29.262C45.1222 29.6607 45.5056 29.9367 46.0576 30.09C46.7629 30.2127 47.2689 30.228 47.5756 30.136C47.8822 30.0133 48.2656 29.8447 48.7256 29.63C48.9709 29.4767 49.2009 29.308 49.4156 29.124C49.6609 28.94 49.8909 28.756 50.1056 28.572C50.3509 28.388 50.5502 28.25 50.7036 28.158C50.8569 28.0353 51.0102 27.9587 51.1636 27.928C51.3169 27.8973 51.4702 27.882 51.6236 27.882C51.9609 27.9127 52.2829 28.0967 52.5896 28.434C52.8962 28.7713 53.0956 29.0933 53.1876 29.4C53.1876 29.6453 53.0342 29.998 52.7276 30.458C52.4209 30.8873 52.0069 31.3473 51.4856 31.838C50.9949 32.298 50.4429 32.712 49.8296 33.08ZM49.2316 22.822C49.4462 22.73 49.7529 22.5153 50.1516 22.178C50.5809 21.8407 50.9642 21.488 51.3016 21.12C51.6389 20.7213 51.8076 20.4147 51.8076 20.2C51.8076 19.8627 51.5776 19.5713 51.1176 19.326C50.6882 19.0807 50.1209 19.0347 49.4156 19.188C49.1702 19.2493 48.8789 19.418 48.5416 19.694C48.2042 19.97 47.8669 20.292 47.5296 20.66C47.1922 20.9973 46.9009 21.3347 46.6556 21.672C46.4102 21.9787 46.2416 22.224 46.1496 22.408C46.2722 22.5613 46.5176 22.684 46.8856 22.776C47.2536 22.868 47.6522 22.914 48.0816 22.914C48.5416 22.914 48.9249 22.8833 49.2316 22.822ZM70.9888 33.816C70.5288 33.816 70.0842 33.678 69.6548 33.402C69.2255 33.0953 68.8728 32.6813 68.5968 32.16C68.3208 31.608 68.1828 30.964 68.1828 30.228C68.1828 29.768 68.2595 29.124 68.4128 28.296C68.5968 27.4373 68.8575 26.364 69.1948 25.076C69.2562 24.6467 69.3022 24.3707 69.3328 24.248C69.3942 24.1253 69.4248 24.0027 69.4248 23.88C69.4248 23.8187 69.4095 23.7727 69.3788 23.742C69.3788 23.6807 69.3482 23.65 69.2868 23.65C69.0415 23.65 68.7042 23.8187 68.2748 24.156C67.8762 24.4627 67.4162 24.8307 66.8948 25.26C66.8028 25.3213 66.6955 25.398 66.5728 25.49C66.4808 25.582 66.3735 25.674 66.2508 25.766C66.1588 25.858 66.0515 25.95 65.9288 26.042C65.6222 26.226 65.1468 26.5787 64.5028 27.1C63.8895 27.6213 63.2455 28.1733 62.5708 28.756C61.9268 29.3387 61.3595 29.8293 60.8688 30.228C60.6235 30.412 60.4088 30.5653 60.2248 30.688C60.0715 30.8107 59.9642 30.872 59.9028 30.872C59.8415 30.872 59.5962 30.7953 59.1668 30.642C58.7682 30.458 58.3695 30.2127 57.9708 29.906C57.6028 29.5687 57.4188 29.1853 57.4188 28.756C57.4188 28.48 57.5262 27.928 57.7408 27.1C57.9862 26.272 58.3235 25.2907 58.7528 24.156C59.1822 23.0213 59.6728 21.8713 60.2248 20.706C60.3475 20.43 60.4395 20.062 60.5008 19.602C60.5622 19.142 60.6235 18.6973 60.6848 18.268C60.7768 17.808 60.9302 17.4707 61.1448 17.256C61.2368 17.1027 61.3442 16.9953 61.4668 16.934C61.6202 16.842 61.7735 16.796 61.9268 16.796C62.2335 16.796 62.5248 16.8727 62.8008 17.026C63.0768 17.1487 63.3375 17.3633 63.5828 17.67C64.0428 18.1607 64.2882 18.7433 64.3188 19.418C64.3802 20.062 64.3342 20.6907 64.1808 21.304C64.0275 21.9173 63.8588 22.4233 63.6748 22.822C63.4908 23.19 63.3988 23.3433 63.3988 23.282C63.5215 23.2207 63.6902 23.0673 63.9048 22.822C64.1502 22.5767 64.5642 22.2853 65.1468 21.948C65.9442 21.3347 66.5575 20.9053 66.9868 20.66C67.4162 20.384 67.7382 20.1847 67.9528 20.062C68.1982 19.9393 68.4128 19.8013 68.5968 19.648C68.7502 19.5253 68.8575 19.4487 68.9188 19.418C69.0108 19.3873 69.0568 19.372 69.0568 19.372C69.1488 19.372 69.3022 19.3107 69.5168 19.188C69.7622 19.0653 69.9922 19.004 70.2068 19.004C70.5135 19.004 70.8355 19.0807 71.1728 19.234C71.5102 19.3567 71.8015 19.5407 72.0468 19.786C72.2922 20.0007 72.4148 20.2307 72.4148 20.476C72.4148 20.568 72.4455 20.6447 72.5068 20.706C72.5682 20.7673 72.6295 20.844 72.6908 20.936C72.8442 21.12 73.0128 21.3807 73.1968 21.718C73.4115 22.0247 73.5188 22.5307 73.5188 23.236C73.5188 23.7267 73.4115 24.4473 73.1968 25.398C72.9822 26.3487 72.7522 27.284 72.5068 28.204C72.2615 29.1547 72.1388 29.9213 72.1388 30.504C72.1695 31.056 72.2308 31.4853 72.3228 31.792C72.4148 32.068 72.4608 32.298 72.4608 32.482C72.4608 32.7273 72.3382 33.0187 72.0928 33.356C71.8475 33.6627 71.4795 33.816 70.9888 33.816ZM81.7061 36.76C80.2035 36.7293 79.2375 36.3 78.8081 35.472C78.4095 34.6747 78.3021 33.6627 78.4861 32.436C78.6701 31.8533 78.7775 31.332 78.8081 30.872C78.8695 30.3813 79.0075 30.0747 79.2221 29.952C79.2221 29.952 79.2375 29.906 79.2681 29.814C79.3295 29.722 79.3141 29.63 79.2221 29.538C79.2221 29.1393 79.3601 28.5873 79.6361 27.882C79.6975 27.698 79.7741 27.4833 79.8661 27.238C79.9888 26.962 80.0501 26.824 80.0501 26.824C79.8968 26.5787 79.8968 26.3793 80.0501 26.226C80.2035 26.0727 80.3568 25.9347 80.5101 25.812C80.6941 25.6587 80.7095 25.49 80.5561 25.306C80.4948 25.1833 80.5715 24.9073 80.7861 24.478C81.0008 24.018 81.2461 23.5427 81.5221 23.052C81.7981 22.5613 81.9821 22.178 82.0741 21.902C82.0741 21.8407 82.1508 21.626 82.3041 21.258C82.4575 20.89 82.6415 20.4607 82.8561 19.97C83.0708 19.4793 83.2701 19.0347 83.4541 18.636C83.6688 18.2373 83.8068 17.9767 83.8681 17.854C84.1748 17.7007 84.0521 17.5933 83.5001 17.532C82.9481 17.4707 82.3655 17.4553 81.7521 17.486C80.8015 17.4553 80.0348 17.4093 79.4521 17.348C78.9001 17.2867 78.4401 17.1487 78.0721 16.934C77.7041 16.5047 77.6581 15.9987 77.9341 15.416C78.2101 14.8027 78.6548 14.4807 79.2681 14.45C79.6668 14.4193 79.9735 14.404 80.1881 14.404C80.4335 14.404 80.7401 14.3887 81.1081 14.358C81.5068 14.2967 82.1201 14.22 82.9481 14.128L85.2941 13.944L85.4321 13.162C85.6775 12.7633 85.8461 12.5027 85.9381 12.38C86.0301 12.2573 86.0915 12.1347 86.1221 12.012C86.1528 11.8587 86.1988 11.598 86.2601 11.23C86.2601 11.23 86.3981 10.9847 86.6741 10.494C86.9501 9.97267 87.1188 9.436 87.1801 8.884C87.5481 8.27067 87.8701 7.71867 88.1461 7.228C88.4221 6.70667 88.5908 6.38466 88.6521 6.262C89.1735 5.49533 89.6795 5.08133 90.1701 5.02C90.6915 4.95866 91.1821 5.08133 91.6421 5.388C91.9181 5.54133 92.1788 5.74066 92.4241 5.986C92.6695 6.20066 92.8228 6.492 92.8841 6.86C92.9455 7.19733 92.8075 7.642 92.4701 8.194C92.4088 8.31666 92.3168 8.54667 92.1941 8.884C92.0715 9.19067 91.9795 9.45133 91.9181 9.666C91.7341 9.88067 91.5041 10.2333 91.2281 10.724C90.9828 11.184 90.8141 11.6593 90.7221 12.15C90.4768 12.6713 90.3235 12.9933 90.2621 13.116C90.2008 13.2387 90.1088 13.3 89.9861 13.3C90.0475 13.6067 90.2315 13.76 90.5381 13.76C90.8448 13.7293 91.3508 13.6987 92.0561 13.668C92.6388 13.6067 93.0375 13.5453 93.2521 13.484C93.4975 13.392 93.7735 13.4227 94.0801 13.576C94.2335 13.7907 94.3101 14.1127 94.3101 14.542C94.3408 14.9407 94.2948 15.3393 94.1721 15.738C94.0495 16.106 93.8808 16.336 93.6661 16.428C93.5128 16.428 93.1908 16.52 92.7001 16.704C92.2401 16.8573 91.6575 16.9493 90.9521 16.98L88.5141 17.21L87.7321 18.774C87.5175 19.1727 87.3335 19.5407 87.1801 19.878C87.0268 20.1847 86.9195 20.3687 86.8581 20.43C86.8581 20.614 86.7508 20.89 86.5361 21.258C86.3521 21.626 86.1528 22.0247 85.9381 22.454C85.7541 22.9753 85.5395 23.4507 85.2941 23.88C85.0795 24.3093 84.9721 24.524 84.9721 24.524C84.8495 24.524 84.7881 24.616 84.7881 24.8C84.9415 25.168 84.8955 25.444 84.6501 25.628C84.4968 25.72 84.3588 25.858 84.2361 26.042C84.1441 26.1953 84.0981 26.272 84.0981 26.272C84.2208 26.3947 84.2361 26.548 84.1441 26.732C84.0828 26.916 83.9908 27.1153 83.8681 27.33C83.8681 27.5753 83.7915 27.928 83.6381 28.388C83.5155 28.848 83.3775 29.2773 83.2241 29.676C83.2548 30.228 83.2855 30.5807 83.3161 30.734C83.3468 30.8873 83.4235 30.9487 83.5461 30.918C83.6995 30.9487 83.9141 30.9487 84.1901 30.918C84.4661 30.8873 84.6655 30.872 84.7881 30.872C85.2481 30.6573 85.0335 31.7307 84.1441 34.092C83.6535 34.8587 83.1628 35.4873 82.6721 35.978C82.1815 36.4993 81.8595 36.76 81.7061 36.76Z" fill="white"/>
<path d="M95.0946 38.186C95.0946 38.186 94.9413 38.1247 94.6346 38.002C94.328 37.91 93.9906 37.818 93.6226 37.726C93.2853 37.634 93.0246 37.588 92.8406 37.588C92.35 37.4653 91.9973 37.1893 91.7826 36.76C91.568 36.3613 91.522 35.9167 91.6446 35.426C91.7673 35.3033 91.8593 35.0427 91.9206 34.644C91.982 34.2453 92.0126 33.9233 92.0126 33.678C92.1353 33.4327 92.212 33.264 92.2426 33.172C92.2733 33.0493 92.35 32.7427 92.4726 32.252C92.5646 31.7307 92.718 31.01 92.9326 30.09C93.178 29.1393 93.4386 28.1273 93.7146 27.054C94.0213 25.9807 94.3126 24.9533 94.5886 23.972C94.8646 22.9907 95.11 22.1627 95.3246 21.488C95.57 20.8133 95.7386 20.43 95.8306 20.338C95.8306 20.338 95.8306 20.292 95.8306 20.2C95.8306 20.0773 95.8306 19.9547 95.8306 19.832C95.8306 19.832 95.846 19.694 95.8766 19.418C95.938 19.1113 96.0913 18.774 96.3366 18.406C96.4593 18.0687 96.5666 17.7007 96.6586 17.302C96.7506 16.9033 96.7966 16.6427 96.7966 16.52C96.9193 16.3667 97.088 15.9987 97.3026 15.416C97.548 14.8027 97.778 14.2047 97.9926 13.622C98.1766 13.1313 98.376 12.61 98.5906 12.058C98.836 11.506 99.0353 11.0307 99.1886 10.632C99.3726 10.2333 99.4646 10.034 99.4646 10.034C99.4646 9.91133 99.4646 9.85 99.4646 9.85C99.4646 9.81933 99.4646 9.804 99.4646 9.804C99.5873 9.68133 99.8786 9.068 100.339 7.964C100.829 6.82933 101.489 5.37267 102.317 3.594C102.439 3.34867 102.623 2.96533 102.869 2.444C103.114 1.892 103.237 1.55466 103.237 1.432C103.697 0.971998 104.141 0.818664 104.571 0.971997C105.031 1.09466 105.429 1.35533 105.767 1.754C106.135 2.15267 106.395 2.52067 106.549 2.858L107.009 3.594L105.307 6.906C104.816 7.76466 104.387 8.54666 104.019 9.252C103.681 9.95733 103.513 10.3713 103.513 10.494C103.513 10.494 103.436 10.678 103.283 11.046C103.16 11.414 103.007 11.8893 102.823 12.472C102.639 13.024 102.455 13.576 102.271 14.128C101.933 15.0787 101.611 15.876 101.305 16.52C100.998 17.1333 100.845 17.5013 100.845 17.624C100.845 17.5627 101.151 17.5167 101.765 17.486C102.409 17.4553 103.206 17.44 104.157 17.44C105.107 17.44 106.073 17.44 107.055 17.44C108.067 17.4093 108.971 17.394 109.769 17.394C110.566 17.3633 111.118 17.3173 111.425 17.256L113.817 17.026L115.105 12.932C115.35 12.0733 115.672 11.0307 116.071 9.804C116.469 8.57733 116.822 7.53466 117.129 6.676C117.619 5.26533 118.141 4.284 118.693 3.732C119.245 3.14933 119.705 2.858 120.073 2.858C120.165 2.858 120.333 2.95 120.579 3.134C120.855 3.28733 121.131 3.47133 121.407 3.686C121.683 3.90067 121.851 4.1 121.913 4.284C122.281 4.62133 122.449 5.00466 122.419 5.434C122.419 5.86333 122.173 6.43066 121.683 7.136C121.192 7.964 120.778 8.86866 120.441 9.85C120.134 10.8007 119.858 11.5827 119.613 12.196C119.613 12.564 119.567 12.8707 119.475 13.116C119.383 13.3307 119.275 13.4993 119.153 13.622C119.091 13.6833 118.969 13.9133 118.785 14.312C118.601 14.7107 118.432 15.1093 118.279 15.508C118.125 15.9067 118.049 16.152 118.049 16.244C118.049 16.4587 118.003 16.7193 117.911 17.026C117.819 17.3327 117.711 17.5473 117.589 17.67C117.527 17.854 117.389 18.314 117.175 19.05C116.96 19.786 116.715 20.66 116.439 21.672C116.163 22.6533 115.871 23.6193 115.565 24.57C115.258 25.49 114.982 26.2567 114.737 26.87C114.737 27.0847 114.66 27.3607 114.507 27.698C114.353 28.0047 114.277 28.2807 114.277 28.526C114.154 28.894 114.001 29.354 113.817 29.906C113.633 30.458 113.541 30.8107 113.541 30.964C113.387 31.6693 113.219 32.482 113.035 33.402C112.881 34.322 112.743 35.1347 112.621 35.84C112.529 36.5453 112.483 36.944 112.483 37.036C111.685 37.128 111.087 37.0207 110.689 36.714C110.29 36.4073 109.922 36.1927 109.585 36.07C109.002 35.7327 108.649 35.3033 108.527 34.782C108.435 34.2913 108.557 33.6933 108.895 32.988C109.048 32.7427 109.232 32.1447 109.447 31.194C109.692 30.2127 109.937 29.2467 110.183 28.296C110.367 27.836 110.566 27.2533 110.781 26.548C110.995 25.8427 111.195 25.1527 111.379 24.478C111.593 23.7727 111.777 23.1747 111.931 22.684C112.084 22.1933 112.191 21.9173 112.253 21.856C112.253 21.7333 112.253 21.626 112.253 21.534C112.253 21.442 112.253 21.396 112.253 21.396C112.191 21.3347 111.885 21.2887 111.333 21.258C110.781 21.1967 110.075 21.1813 109.217 21.212C108.389 21.212 107.484 21.2427 106.503 21.304C105.521 21.3347 104.586 21.4113 103.697 21.534C103.359 21.534 102.869 21.534 102.225 21.534C101.611 21.534 101.182 21.534 100.937 21.534C100.599 21.534 100.308 21.534 100.063 21.534C99.848 21.534 99.7406 21.534 99.7406 21.534C99.6793 21.626 99.5566 21.9327 99.3726 22.454C99.2193 22.9753 99.02 23.604 98.7746 24.34C98.56 25.076 98.33 25.8273 98.0846 26.594C97.87 27.3607 97.6706 28.066 97.4866 28.71C97.3333 29.3233 97.226 29.768 97.1646 30.044C97.042 30.596 96.8733 31.286 96.6586 32.114C96.4746 32.942 96.26 33.7853 96.0146 34.644C95.8 35.5333 95.6006 36.3 95.4166 36.944C95.2633 37.588 95.156 38.002 95.0946 38.186ZM130.249 34.276C130.034 34.3987 129.743 34.3527 129.375 34.138C129.037 33.9233 128.7 33.6013 128.363 33.172C128.148 32.804 127.979 32.436 127.857 32.068C127.765 31.6693 127.719 31.0867 127.719 30.32C127.749 29.7067 127.749 29.2927 127.719 29.078C127.719 28.8327 127.581 28.8173 127.305 29.032C127.059 29.216 126.553 29.676 125.787 30.412C125.02 31.1787 124.284 31.838 123.579 32.39C122.904 32.9113 122.352 33.1567 121.923 33.126C121.708 33.126 121.417 32.988 121.049 32.712C120.681 32.436 120.328 32.0987 119.991 31.7C119.653 31.2707 119.408 30.872 119.255 30.504C119.071 29.768 119.055 28.8173 119.209 27.652C119.393 26.4867 119.684 25.2753 120.083 24.018C120.481 22.73 120.926 21.534 121.417 20.43C121.938 19.2953 122.444 18.3907 122.935 17.716C123.456 17.0107 123.901 16.6733 124.269 16.704C124.79 16.7653 125.235 17.026 125.603 17.486C126.001 17.9153 126.308 18.3907 126.523 18.912C126.645 19.1267 126.691 19.3107 126.661 19.464C126.661 19.6173 126.538 19.8013 126.293 20.016C126.017 20.384 125.679 20.9207 125.281 21.626C124.913 22.3007 124.529 23.0367 124.131 23.834C123.763 24.6313 123.425 25.398 123.119 26.134C122.843 26.8393 122.643 27.422 122.521 27.882C122.398 28.342 122.398 28.572 122.521 28.572C122.95 28.572 123.349 28.4647 123.717 28.25C124.085 28.0047 124.545 27.6213 125.097 27.1C125.741 26.456 126.308 25.812 126.799 25.168C127.289 24.4933 127.795 23.7267 128.317 22.868C128.715 22.2547 129.129 21.58 129.559 20.844C130.019 20.108 130.31 19.5867 130.433 19.28C130.862 18.4827 131.184 17.8847 131.399 17.486C131.613 17.0873 131.874 16.842 132.181 16.75C132.334 16.75 132.549 16.75 132.825 16.75C133.101 16.75 133.239 16.75 133.239 16.75C133.423 16.7807 133.637 16.9187 133.883 17.164C134.128 17.2867 134.373 17.4553 134.619 17.67C134.895 17.8847 135.033 18.0687 135.033 18.222C134.91 18.5287 134.711 18.9887 134.435 19.602C134.189 20.1847 134.005 20.614 133.883 20.89C133.3 22.2087 132.733 23.512 132.181 24.8C131.659 26.0573 131.276 27.3453 131.031 28.664C130.969 29.0933 130.954 29.5993 130.985 30.182C131.046 30.734 131.138 31.1327 131.261 31.378C131.353 31.562 131.46 31.7767 131.583 32.022C131.736 32.2367 131.905 32.4207 132.089 32.574C132.365 32.758 132.349 32.988 132.043 33.264C131.767 33.54 131.414 33.7853 130.985 34C130.586 34.184 130.341 34.276 130.249 34.276ZM142.03 33.724C141.417 33.6627 140.926 33.5093 140.558 33.264C140.221 32.988 139.96 32.6507 139.776 32.252C139.531 31.976 139.377 31.7613 139.316 31.608C139.285 31.4547 139.285 31.3167 139.316 31.194C139.469 31.194 139.607 31.194 139.73 31.194C139.853 31.1633 139.929 31.102 139.96 31.01C139.96 30.918 140.006 30.8567 140.098 30.826C140.221 30.7953 140.343 30.7953 140.466 30.826C141.049 30.8567 141.754 30.6573 142.582 30.228C143.441 29.7987 144.376 29.2007 145.388 28.434C146.4 27.6367 147.412 26.778 148.424 25.858C149.221 24.8153 149.773 24.0487 150.08 23.558C150.417 23.0673 150.586 22.6993 150.586 22.454C150.617 22.178 150.555 21.902 150.402 21.626C150.279 21.3807 149.988 21.258 149.528 21.258C149.068 21.258 148.363 21.5647 147.412 22.178C146.093 23.006 145.035 23.7727 144.238 24.478C143.441 25.1833 142.705 25.9807 142.03 26.87C141.785 27.1767 141.509 27.514 141.202 27.882C140.926 28.2193 140.681 28.5107 140.466 28.756C140.282 29.0013 140.19 29.124 140.19 29.124C140.19 29.2467 140.006 29.4 139.638 29.584C139.301 29.768 139.009 29.86 138.764 29.86C138.641 29.7987 138.473 29.6913 138.258 29.538C138.074 29.354 137.951 29.124 137.89 28.848C137.614 28.6333 137.384 28.4493 137.2 28.296C137.016 28.112 136.924 27.8207 136.924 27.422C136.924 27.1767 136.955 26.87 137.016 26.502C137.108 26.134 137.231 25.6587 137.384 25.076C137.568 24.2787 137.767 23.4507 137.982 22.592C138.197 21.7027 138.396 20.9513 138.58 20.338C138.795 19.694 138.948 19.3413 139.04 19.28C139.04 19.28 139.101 19.142 139.224 18.866C139.347 18.59 139.408 18.268 139.408 17.9C139.469 17.532 139.561 17.21 139.684 16.934C139.837 16.658 139.914 16.4587 139.914 16.336C140.037 16.244 140.221 15.876 140.466 15.232C140.711 14.588 141.018 13.7447 141.386 12.702C141.386 12.61 141.493 12.3187 141.708 11.828C141.923 11.3067 142.183 10.7087 142.49 10.034C142.797 9.32867 143.103 8.608 143.41 7.872C143.747 7.10533 144.023 6.43066 144.238 5.848C144.606 5.32667 144.913 4.80533 145.158 4.284C145.434 3.732 145.679 3.41 145.894 3.318C146.047 3.28733 146.308 3.34866 146.676 3.502C147.075 3.65533 147.473 3.85466 147.872 4.1C148.271 4.34533 148.547 4.59067 148.7 4.836C148.792 4.98933 148.838 5.14267 148.838 5.296C148.869 5.44933 148.807 5.71 148.654 6.078C148.501 6.41533 148.24 6.98267 147.872 7.78C147.504 8.54667 146.983 9.63533 146.308 11.046C145.449 12.886 144.775 14.4193 144.284 15.646C143.824 16.8727 143.441 17.9307 143.134 18.82C142.858 19.7093 142.567 20.5527 142.26 21.35L142.03 22.362L143.226 21.028C143.533 20.7213 143.855 20.43 144.192 20.154C144.529 19.878 144.897 19.602 145.296 19.326C145.541 19.142 145.863 18.958 146.262 18.774C146.691 18.5593 147.105 18.3753 147.504 18.222C147.903 18.0687 148.194 17.9767 148.378 17.946C148.47 17.9153 148.777 17.854 149.298 17.762C149.85 17.6393 150.387 17.578 150.908 17.578C151.583 17.578 152.165 17.8233 152.656 18.314C153.177 18.774 153.637 19.3413 154.036 20.016C154.373 20.66 154.496 21.488 154.404 22.5C154.312 23.4813 154.051 24.3247 153.622 25.03C153.469 25.1527 153.315 25.3213 153.162 25.536C153.009 25.72 152.932 25.8733 152.932 25.996C152.901 26.2107 152.625 26.6553 152.104 27.33C151.583 27.974 151.061 28.5873 150.54 29.17C149.988 29.7527 149.313 30.3353 148.516 30.918C147.719 31.47 146.921 31.976 146.124 32.436C145.357 32.8653 144.698 33.172 144.146 33.356C143.901 33.3867 143.548 33.448 143.088 33.54C142.628 33.6013 142.275 33.6627 142.03 33.724Z" fill="url(#paint0_linear_129_673)"/>
<defs>
<linearGradient id="paint0_linear_129_673" x1="38.549" y1="-32.5213" x2="10.0574" y2="18.2706" gradientUnits="userSpaceOnUse">
<stop stop-color="#FFB640"/>
<stop offset="1" stop-color="#DC4E2B"/>
</linearGradient>
</defs>
</svg>
