<svg width="206" height="40" viewBox="0 0 206 40" fill="none" xmlns="http://www.w3.org/2000/svg">
<rect width="206" height="40" rx="15" fill="url(#paint0_linear_58_264)"/>
<path d="M27.8256 25V14.0909H30.1321V18.592H34.8142V14.0909H37.1154V25H34.8142V20.4936H30.1321V25H27.8256ZM41.3075 25.1545C40.7855 25.1545 40.3203 25.0639 39.9119 24.8828C39.5035 24.6982 39.1804 24.4265 38.9424 24.0678C38.7081 23.7056 38.5909 23.2546 38.5909 22.7148C38.5909 22.2603 38.6743 21.8786 38.8412 21.5696C39.0081 21.2607 39.2354 21.0121 39.523 20.8239C39.8107 20.6357 40.1374 20.4936 40.5032 20.3977C40.8725 20.3018 41.2595 20.2344 41.6644 20.1953C42.1402 20.1456 42.5237 20.0994 42.8149 20.0568C43.1061 20.0107 43.3174 19.9432 43.4488 19.8544C43.5802 19.7656 43.6459 19.6342 43.6459 19.4602V19.4283C43.6459 19.0909 43.5394 18.8299 43.3263 18.6452C43.1168 18.4606 42.8185 18.3683 42.4314 18.3683C42.023 18.3683 41.6981 18.4588 41.4566 18.6399C41.2152 18.8175 41.0554 19.0412 40.9772 19.3111L38.8785 19.1406C38.985 18.6435 39.1946 18.2138 39.5071 17.8516C39.8196 17.4858 40.2226 17.2053 40.7162 17.0099C41.2134 16.8111 41.7887 16.7116 42.4421 16.7116C42.8966 16.7116 43.3316 16.7649 43.7471 16.8714C44.1661 16.978 44.5372 17.1431 44.8604 17.3668C45.1871 17.5906 45.4446 17.8782 45.6328 18.2298C45.821 18.5778 45.9151 18.995 45.9151 19.4815V25H43.7631V23.8654H43.6992C43.5678 24.1211 43.392 24.3466 43.1718 24.5419C42.9517 24.7337 42.6871 24.8846 42.3782 24.9947C42.0692 25.1012 41.7123 25.1545 41.3075 25.1545ZM41.9573 23.5884C42.2911 23.5884 42.5859 23.5227 42.8416 23.3913C43.0973 23.2564 43.2979 23.0753 43.4435 22.848C43.5891 22.6207 43.6619 22.3633 43.6619 22.0756V21.2074C43.5909 21.2536 43.4932 21.2962 43.3689 21.3352C43.2482 21.3707 43.1115 21.4045 42.9588 21.4364C42.8061 21.4648 42.6534 21.4915 42.5007 21.5163C42.348 21.5376 42.2095 21.5572 42.0852 21.5749C41.8188 21.614 41.5862 21.6761 41.3874 21.7614C41.1885 21.8466 41.034 21.962 40.924 22.1076C40.8139 22.2496 40.7588 22.4272 40.7588 22.6403C40.7588 22.9492 40.8707 23.1854 41.0944 23.3487C41.3217 23.5085 41.6093 23.5884 41.9573 23.5884ZM49.8435 22.0064L52.7892 16.8182H55.0264V25H52.8638V19.7958L49.9288 25H47.6756V16.8182H49.8435V22.0064ZM52.4003 13.9631H53.9824C53.9788 14.6094 53.7391 15.1296 53.2633 15.5238C52.791 15.918 52.1518 16.1151 51.3457 16.1151C50.536 16.1151 49.895 15.918 49.4227 15.5238C48.9504 15.1296 48.7143 14.6094 48.7143 13.9631H50.2856C50.2821 14.2081 50.3602 14.4283 50.52 14.6236C50.6834 14.8189 50.9586 14.9165 51.3457 14.9165C51.7221 14.9165 51.992 14.8207 52.1553 14.6289C52.3187 14.4371 52.4003 14.2152 52.4003 13.9631ZM56.0238 18.6026V16.8182H63.4386V18.6026H60.8019V25H58.6392V18.6026H56.0238ZM66.9822 22.0064L69.9279 16.8182H72.1651V25H70.0024V19.7958L67.0674 25H64.8142V16.8182H66.9822V22.0064ZM82.2925 22.4911L84.5084 16.8182H86.2342L83.0435 25H81.5361L78.42 16.8182H80.1405L82.2925 22.4911ZM79.6238 16.8182V25H77.4558V16.8182H79.6238ZM85.073 25V16.8182H87.2144V25H85.073ZM92.6982 25.1598C91.8566 25.1598 91.1321 24.9893 90.5249 24.6484C89.9212 24.304 89.456 23.8175 89.1293 23.1889C88.8026 22.5568 88.6392 21.8093 88.6392 20.9464C88.6392 20.1048 88.8026 19.3661 89.1293 18.7305C89.456 18.0948 89.9159 17.5994 90.5089 17.2443C91.1055 16.8892 91.8051 16.7116 92.6076 16.7116C93.1474 16.7116 93.6499 16.7987 94.1151 16.9727C94.5839 17.1431 94.9922 17.4006 95.3402 17.745C95.6918 18.0895 95.9652 18.5227 96.1606 19.0447C96.3559 19.5632 96.4535 20.1705 96.4535 20.8665V21.4897H89.5448V20.0835H94.3175C94.3175 19.7567 94.2465 19.4673 94.1044 19.2152C93.9624 18.9631 93.7653 18.766 93.5132 18.6239C93.2646 18.4783 92.9752 18.4055 92.6449 18.4055C92.3005 18.4055 91.9951 18.4854 91.7287 18.6452C91.466 18.8015 91.26 19.0128 91.1108 19.2791C90.9617 19.5419 90.8853 19.8349 90.8818 20.158V21.495C90.8818 21.8999 90.9564 22.2496 91.1055 22.5444C91.2582 22.8391 91.4731 23.0664 91.75 23.2262C92.027 23.386 92.3555 23.4659 92.7355 23.4659C92.9876 23.4659 93.2184 23.4304 93.428 23.3594C93.6375 23.2884 93.8168 23.1818 93.966 23.0398C94.1151 22.8977 94.2287 22.7237 94.3069 22.5178L96.4056 22.6562C96.2991 23.1605 96.0807 23.6009 95.7504 23.9773C95.4237 24.3501 95.0011 24.6413 94.4826 24.8509C93.9677 25.0568 93.3729 25.1598 92.6982 25.1598ZM97.9343 28.0682V16.8182H100.172V18.1925H100.273C100.372 17.9723 100.516 17.7486 100.704 17.5213C100.896 17.2905 101.145 17.0987 101.45 16.946C101.759 16.7898 102.142 16.7116 102.601 16.7116C103.197 16.7116 103.748 16.8679 104.252 17.1804C104.756 17.4893 105.159 17.9563 105.461 18.5813C105.763 19.2028 105.914 19.9822 105.914 20.9197C105.914 21.8324 105.766 22.603 105.472 23.2315C105.18 23.8565 104.783 24.3306 104.278 24.6538C103.778 24.9734 103.217 25.1332 102.595 25.1332C102.155 25.1332 101.78 25.0604 101.471 24.9148C101.166 24.7692 100.916 24.5863 100.72 24.3661C100.525 24.1424 100.376 23.9169 100.273 23.6896H100.204V28.0682H97.9343ZM100.156 20.9091C100.156 21.3956 100.223 21.82 100.358 22.1822C100.493 22.5444 100.688 22.8267 100.944 23.0291C101.2 23.228 101.51 23.3274 101.876 23.3274C102.245 23.3274 102.558 23.2262 102.814 23.0238C103.069 22.8178 103.263 22.5337 103.394 22.1715C103.529 21.8058 103.597 21.3849 103.597 20.9091C103.597 20.4368 103.531 20.0213 103.4 19.6626C103.268 19.304 103.075 19.0234 102.819 18.821C102.563 18.6186 102.249 18.5174 101.876 18.5174C101.507 18.5174 101.194 18.6151 100.939 18.8104C100.686 19.0057 100.493 19.2827 100.358 19.6413C100.223 20 100.156 20.4226 100.156 20.9091ZM111.123 25.1598C110.296 25.1598 109.58 24.984 108.977 24.6325C108.376 24.2773 107.913 23.7837 107.586 23.1516C107.26 22.516 107.096 21.7791 107.096 20.9411C107.096 20.0959 107.26 19.3572 107.586 18.7251C107.913 18.0895 108.376 17.5959 108.977 17.2443C109.58 16.8892 110.296 16.7116 111.123 16.7116C111.951 16.7116 112.664 16.8892 113.265 17.2443C113.868 17.5959 114.333 18.0895 114.66 18.7251C114.987 19.3572 115.15 20.0959 115.15 20.9411C115.15 21.7791 114.987 22.516 114.66 23.1516C114.333 23.7837 113.868 24.2773 113.265 24.6325C112.664 24.984 111.951 25.1598 111.123 25.1598ZM111.134 23.402C111.51 23.402 111.825 23.2955 112.077 23.0824C112.329 22.8658 112.519 22.571 112.647 22.1982C112.778 21.8253 112.844 21.4009 112.844 20.9251C112.844 20.4492 112.778 20.0249 112.647 19.652C112.519 19.2791 112.329 18.9844 112.077 18.7678C111.825 18.5511 111.51 18.4428 111.134 18.4428C110.754 18.4428 110.434 18.5511 110.175 18.7678C109.919 18.9844 109.726 19.2791 109.595 19.652C109.467 20.0249 109.403 20.4492 109.403 20.9251C109.403 21.4009 109.467 21.8253 109.595 22.1982C109.726 22.571 109.919 22.8658 110.175 23.0824C110.434 23.2955 110.754 23.402 111.134 23.402ZM116.626 25V16.8182H123.78V25H121.612V18.6026H118.767V25H116.626ZM125.591 28.0682V16.8182H127.828V18.1925H127.929C128.028 17.9723 128.172 17.7486 128.36 17.5213C128.552 17.2905 128.801 17.0987 129.106 16.946C129.415 16.7898 129.799 16.7116 130.257 16.7116C130.853 16.7116 131.404 16.8679 131.908 17.1804C132.412 17.4893 132.815 17.9563 133.117 18.5813C133.419 19.2028 133.57 19.9822 133.57 20.9197C133.57 21.8324 133.423 22.603 133.128 23.2315C132.837 23.8565 132.439 24.3306 131.935 24.6538C131.434 24.9734 130.873 25.1332 130.251 25.1332C129.811 25.1332 129.436 25.0604 129.128 24.9148C128.822 24.7692 128.572 24.5863 128.376 24.3661C128.181 24.1424 128.032 23.9169 127.929 23.6896H127.86V28.0682H125.591ZM127.812 20.9091C127.812 21.3956 127.879 21.82 128.014 22.1822C128.149 22.5444 128.345 22.8267 128.6 23.0291C128.856 23.228 129.167 23.3274 129.532 23.3274C129.902 23.3274 130.214 23.2262 130.47 23.0238C130.726 22.8178 130.919 22.5337 131.05 22.1715C131.185 21.8058 131.253 21.3849 131.253 20.9091C131.253 20.4368 131.187 20.0213 131.056 19.6626C130.924 19.304 130.731 19.0234 130.475 18.821C130.22 18.6186 129.905 18.5174 129.532 18.5174C129.163 18.5174 128.851 18.6151 128.595 18.8104C128.343 19.0057 128.149 19.2827 128.014 19.6413C127.879 20 127.812 20.4226 127.812 20.9091ZM137.251 22.0064L140.196 16.8182H142.434V25H140.271V19.7958L137.336 25H135.083V16.8182H137.251V22.0064ZM149.047 25V18.5973H147.513C147.097 18.5973 146.781 18.6932 146.564 18.8849C146.348 19.0767 146.241 19.304 146.245 19.5668C146.241 19.8331 146.344 20.0586 146.554 20.2433C146.767 20.4244 147.079 20.5149 147.491 20.5149H149.803V22.049H147.491C146.792 22.049 146.186 21.9425 145.675 21.7294C145.164 21.5163 144.769 21.2198 144.492 20.8398C144.215 20.4563 144.079 20.0107 144.082 19.5028C144.079 18.9702 144.215 18.5032 144.492 18.1019C144.769 17.6971 145.165 17.3828 145.68 17.1591C146.199 16.9318 146.81 16.8182 147.513 16.8182H151.161V25H149.047ZM143.848 25L146.122 20.7386H148.29L146.021 25H143.848ZM152.103 18.6026V16.8182H159.518V18.6026H156.881V25H154.718V18.6026H152.103ZM163.061 22.0064L166.007 16.8182H168.244V25H166.082V19.7958L163.147 25H160.893V16.8182H163.061V22.0064ZM173.792 25.1598C172.95 25.1598 172.226 24.9893 171.619 24.6484C171.015 24.304 170.55 23.8175 170.223 23.1889C169.896 22.5568 169.733 21.8093 169.733 20.9464C169.733 20.1048 169.896 19.3661 170.223 18.7305C170.55 18.0948 171.01 17.5994 171.603 17.2443C172.199 16.8892 172.899 16.7116 173.701 16.7116C174.241 16.7116 174.744 16.7987 175.209 16.9727C175.678 17.1431 176.086 17.4006 176.434 17.745C176.786 18.0895 177.059 18.5227 177.254 19.0447C177.45 19.5632 177.547 20.1705 177.547 20.8665V21.4897H170.639V20.0835H175.411C175.411 19.7567 175.34 19.4673 175.198 19.2152C175.056 18.9631 174.859 18.766 174.607 18.6239C174.358 18.4783 174.069 18.4055 173.739 18.4055C173.394 18.4055 173.089 18.4854 172.822 18.6452C172.56 18.8015 172.354 19.0128 172.205 19.2791C172.055 19.5419 171.979 19.8349 171.976 20.158V21.495C171.976 21.8999 172.05 22.2496 172.199 22.5444C172.352 22.8391 172.567 23.0664 172.844 23.2262C173.121 23.386 173.449 23.4659 173.829 23.4659C174.081 23.4659 174.312 23.4304 174.522 23.3594C174.731 23.2884 174.911 23.1818 175.06 23.0398C175.209 22.8977 175.322 22.7237 175.401 22.5178L177.499 22.6562C177.393 23.1605 177.174 23.6009 176.844 23.9773C176.517 24.3501 176.095 24.6413 175.576 24.8509C175.061 25.0568 174.467 25.1598 173.792 25.1598Z" fill="white"/>
<defs>
<linearGradient id="paint0_linear_58_264" x1="107.592" y1="-10.8475" x2="102.691" y2="39.9702" gradientUnits="userSpaceOnUse">
<stop stop-color="#FF8340"/>
<stop offset="1" stop-color="#C2330F"/>
</linearGradient>
</defs>
</svg>
